# xmcd CD database file
#
# Track frame offsets:
#	150
#	23025
#	39000
#	70200
#	84150
#	116025
#	128250
#	148875
#	167850
#	194475
#	209775
#
# Disc length: 3017 seconds
#
# Revision: 0
# Processed by: cddbd v1.5.2PL0 Copyright (c) Steve Scherf et al.
# Submitted via: CDex 1.81
#
DISCID=970bc70b
DTITLE=Imperial Quartet - Grand Carnaval
DYEAR=2016
DGENRE=Jazz
TTITLE0=Grand Carnaval
TTITLE1=Funambule
TTITLE2=OnEot Enoemble
TTITLE3=Bhaikava
TTITLE4=One
TTITLE5=Footobarn
TTITLE6=Delta
TTITLE7=Hoffman Cut
TTITLE8=Wendy C
TTITLE9=Nocturne
TTITLE10=Double Dare
EXTD=YEAR: 2016
EXTT0=
EXTT1=
EXTT2=
EXTT3=
EXTT4=
EXTT5=
EXTT6=
EXTT7=
EXTT8=
EXTT9=
EXTT10=
PLAYORDER=
